<svg xmlns="http://www.w3.org/2000/svg" viewBox="0 0 39 39"><path d="M1 1h7v7h-7zM9 1h4v1h-2v1h-1v-1h-1zM14 1h1v2h2v1h-2v2h-1v-3h-1v-1h1zM19 1h2v1h-2zM24 1h6v2h-1v-1h-1v1h-1v-1h-3zM31 1h7v7h-7zM2 2v5h5v-5zM21 2h2v1h2v3h-2v-1h1v-1h-2v1h-1v1h2v1h-1v1h-1v-1h-1v1h1v2h1v2h-1v-1h-1v-1h-1v-1h-2v1h-1v-1h-2v-1h1v-2h1v2h1v-2h1v2h1v-3h-2v-1h1v-1h1v1h1v-1h1zM32 2v5h5v-5zM3 3h3v3h-3zM11 3h1v1h1v2h-1v2h1v1h-2v-2h-1v2h1v1h-4v-1h2v-5h2zM33 3h3v3h-3zM26 4h1v1h-1zM28 4h1v2h-1zM16 5h1v1h-1zM13 6h1v2h-1zM26 6h2v2h1v1h-2v-2h-1zM29 6h1v2h-1zM23 7h1v1h1v-1h1v2h-1v1h1v1h-1v1h-1v2h-1v3h-1v-1h-1v-1h1v-3h1v-2h-1v-2h1zM1 9h1v1h-1zM5 9h1v2h-1v1h-2v-1h1v-1h1zM13 9h1v1h-1zM30 9h5v1h-1v1h-1v-1h-1v1h-1v-1h-1zM37 9h1v2h-1zM2 10h1v1h-1zM15 10h1v1h-1zM17 10h2v2h1v1h-2v-1h-1zM28 10h2v1h-1v2h-1v1h-1v-2h1zM1 11h1v1h-1zM7 11h2v1h1v1h2v1h1v1h-3v-1h-3v-1h1v-1h-1zM11 11h1v1h-1zM13 11h1v3h-1v-1h-1v-1h1zM30 11h1v1h2v2h1v1h-1v1h-1v2h-1v-3h1v-1h-1v-1h-1zM34 11h2v1h2v2h-1v-1h-2v-1h-1zM5 12h1v1h-1zM15 12h1v1h-1zM4 13h1v2h4v1h-2v1h-1v-1h-1v1h-1v1h-2v3h3v1h-2v1h-2v-6h2v-1h1zM16 13h1v1h-1zM20 13h1v2h-1v1h-1v-1h-2v-1h3zM25 13h1v1h-1zM29 13h1v1h-1zM14 14h2v1h-1v2h-1v1h-1v-1h-1v2h3v1h-2v2h3v1h-1v1h-1v-1h-2v-3h-1v-1h-1v-1h-1v-2h1v1h1v-1h2v-1h1zM24 14h1v1h1v-1h1v2h-1v3h-1v1h-1v-3h1v-1h-1zM28 14h1v1h1v2h-1v-1h-1zM30 14h1v1h-1zM2 15h1v1h-1zM16 15h1v1h-1zM36 15h1v1h-1zM17 16h1v2h-1zM27 16h1v1h-1zM35 16h1v2h-1v1h-1v1h-2v1h1v1h-2v-1h-1v1h-1v-2h-1v-2h2v1h3v-2h2zM37 16h1v2h-1zM5 17h1v1h-1zM7 17h1v1h-1zM20 17h2v1h-1v2h1v-1h1v4h-1v-1h-1v-1h-1v-1h-1v-1h-1v-1h2zM6 18h1v1h2v1h2v1h-1v1h1v1h-1v1h4v1h1v1h-1v1h-1v-1h-1v-1h-1v2h2v1h-1v1h-2v-1h-1v-1h1v-2h-1v-3h-2v-1h1v-1h-1v1h-2v-2h1zM3 19h1v1h-1zM16 19h1v1h2v1h-1v2h-1v-2h-1zM35 19h2v1h-1v1h-1zM27 20h1v2h1v2h1v-1h1v1h2v1h-1v1h-1v-1h-1v2h1v1h1v-1h1v2h1v1h1v1h-1v3h-2v1h1v1h-1v2h-1v-4h-2v-1h-1v-1h1v-1h-2v1h-1v-2h1v-1h1v1h1v-2h-1v-1h1v-1h-1v-2h-1v-1h-1v-1h1zM37 20h1v1h-1zM24 21h2v1h-1v2h-1zM34 21h1v2h-2v-1h1zM5 22h1v1h-1zM19 22h2v1h-2zM36 22h2v1h-2zM3 23h2v1h-1v1h-1zM7 23h1v1h-1zM16 23h1v1h1v-1h1v1h1v2h-1v-1h-2v1h-1v-1h-1v-1h1zM21 23h1v2h-1zM35 23h1v3h-1zM1 24h1v1h1v1h1v1h-3zM5 24h1v3h-1v-1h-1v-1h1zM23 24h1v1h1v1h2v2h-1v-1h-1v1h-1v1h-1v1h-2v1h-1v-2h2v-1h1v-1h1v-1h-1zM25 24h1v1h-1zM7 25h1v1h-1zM33 25h1v2h-1zM37 25h1v1h-1zM8 26h1v1h-1zM17 26h1v1h2v2h-2v-1h-1zM20 26h2v2h-1v-1h-1zM36 26h1v1h-1zM7 27h1v1h-1zM34 27h1v1h-1zM4 28h1v1h-1zM13 28h1v1h1v1h-1v1h-1v-1h-1v-1h1zM35 28h1v1h-1zM1 29h3v1h-3zM7 29h2v1h-2zM16 29h1v1h-1zM25 29h1v1h-1zM36 29h2v2h-1v-1h-1zM9 30h1v1h1v1h-2zM11 30h1v1h-1zM15 30h1v1h1v-1h2v1h-1v3h-1v-1h-1v-1h-1v1h-1v1h-2v2h-2v-2h1v-1h2v-1h1v-1h1zM23 30h1v1h1v1h-2v1h-1v-2h1zM30 30v3h3v-3zM1 31h7v7h-7zM12 31h1v1h-1zM19 31h1v1h-1zM31 31h1v1h-1zM35 31h1v1h1v2h-1v1h-1v1h-1v-2h1zM2 32v5h5v-5zM20 32h1v1h1v1h-1v2h2v-1h-1v-1h3v-1h1v5h-2v-1h1v-1h-1v1h-1v1h-2v-1h-1v-2h-2v-1h2zM3 33h3v3h-3zM9 33h1v1h-1zM14 34h2v1h1v1h2v1h1v1h-2v-1h-2v-1h-3v-1h1zM27 34h2v1h1v1h-1v1h-1v-1h-1zM37 34h1v1h-1zM12 36h1v1h-1zM33 36h1v1h-1zM35 36h2v1h1v1h-2v-1h-1zM9 37h1v1h-1zM13 37h3v1h-3zM27 37h1v1h-1z"/></svg>