<svg xmlns="http://www.w3.org/2000/svg" viewBox="0 0 39 39"><path d="M1 1h7v7h-7zM11 1h5v1h1v1h-2v-1h-2v1h-1v1h2v-1h1v1h1v1h-1v2h-1v-1h-1v-1h-3v1h3v1h-1v2h-1v-2h-1v2h-1v-6h1v-1h1zM19 1h1v1h-1zM21 1h4v1h-4zM31 1h7v7h-7zM2 2v5h5v-5zM20 2h1v1h2v1h-1v1h1v-1h1v1h1v1h-3v2h1v1h-3v-1h1v-3h-1zM25 2h2v1h-2zM28 2h2v3h-1v-2h-1zM32 2v5h5v-5zM3 3h3v3h-3zM27 3h1v1h-1zM33 3h3v3h-3zM25 4h2v1h-2zM16 5h1v1h-1zM19 5h1v3h-1zM27 5h1v1h-1zM26 6h1v1h-1zM28 6h2v3h-1v1h1v1h-1v1h1v2h-2v-2h-1v-1h1v-3h1v-1h-1zM13 7h1v1h1v-1h1v1h1v-1h1v2h-2v1h-1v-1h-2zM23 7h1v1h-1zM25 7h1v1h-1zM27 7h1v1h-1zM1 9h1v1h-1zM3 9h5v1h-1v1h1v-1h1v1h1v2h-1v-1h-2v1h2v1h-3v-1h-2v2h1v1h1v1h-3v1h-1v1h1v-1h1v1h2v3h-1v-2h-1v1h-1v-1h-2v-3h1v-1h1v-1h-2v-1h1v-2h4v-1h-3zM10 9h1v2h-1zM12 9h1v2h2v1h-1v1h-1v3h-1v-1h-2v1h2v1h-3v-1h-3v-1h3v-1h3v-1h-1v-2h1zM19 9h1v1h-1zM23 9h2v2h-1v-1h-1zM26 9h1v1h-1zM31 9h5v2h1v-1h1v2h-3v1h1v1h-1v1h-1v-1h-1v-1h1v-3h-1v1h-1v1h-1zM16 10h3v2h-1v-1h-2zM22 10h1v1h-1zM1 11h1v1h-1zM21 11h1v1h1v1h-2zM17 12h1v1h-1zM19 12h1v1h-1zM24 12h2v1h1v1h1v1h1v1h-2v-1h-1v-1h-1v-1h-1zM14 13h2v1h-1v4h-1v2h-1v-2h-1v-1h2zM20 13h1v1h-1zM23 13h1v1h-1zM31 13h1v1h-1zM37 13h1v5h-3v-1h1v-1h-1v-1h1v-1h1zM16 14h4v1h-1v1h1v1h-2v1h-1v-2h1v-1h-1v1h-1zM21 14h1v2h1v-1h1v1h1v3h-1v-2h-2v1h1v1h1v2h-2v-2h-3v-1h2zM24 14h1v1h-1zM30 14h1v1h-1zM31 15h2v1h-1v3h-1v-1h-1v1h-1v1h-1v-3h2v-1h1zM6 17h3v1h-3zM26 17h1v1h-1zM33 17h1v1h-1zM15 18h2v1h1v1h-1v2h1v3h-1v1h2v2h-1v-1h-2v-5h-2v2h-2v-1h1v-2h2zM34 18h1v2h-3v-1h2zM7 19h1v1h-1zM37 19h1v1h-1zM11 20h1v3h-1v-1h-1v-1h1zM19 20h2v1h-2zM25 20h1v1h1v1h-2v1h-1v-2h1zM36 20h1v1h-1zM1 21h1v1h-1zM7 21h1v1h-1zM28 21h2v1h-2zM31 21h1v1h-1zM33 21h2v1h-2zM6 22h1v1h-1zM8 22h1v1h-1zM19 22h1v2h-1zM21 22h2v1h-1v1h-1zM32 22h1v1h-1zM37 22h1v4h-1v1h1v1h-1v1h-1v-2h-1v-1h-1v-1h3v-1h-1v-1h1zM4 23h2v2h-1v-1h-1zM7 23h1v1h-1zM10 23h1v1h1v1h3v1h-2v2h-1v1h-1v-3h-1v-1h-1v-1h1zM25 23h2v1h-2zM28 23h3v1h-2v1h-1zM1 24h1v1h-1zM3 24h1v1h1v1h2v1h-1v2h-1v-1h-1v-2h-2v-1h1zM20 24h1v1h-1zM22 24h1v1h-1zM24 24h1v1h1v1h-1v1h-3v-1h2zM31 24h2v4h-2v-2h-1v3h3v-1h1v5h2v1h-2v1h-1v1h-1v-1h-1v-1h-4v1h-1v-1h-1v-1h-1v-1h1v-1h2v1h-1v1h2v-1h1v-2h-1v-3h-1v-2h1v1h1v-1h2zM7 25h1v1h-1zM19 25h1v1h-1zM1 26h1v4h-1zM8 26h1v1h-1zM20 26h1v1h-1zM7 27h1v1h-1zM15 27h1v2h-1zM21 27h1v1h-1zM26 27h1v1h-1zM34 27h1v1h-1zM3 28h1v1h1v1h-2zM8 28h2v1h-2zM13 28h1v1h-1zM17 28h1v1h-1zM22 28h1v1h-1zM24 28h1v1h-1zM6 29h2v1h-2zM14 29h1v2h-1v1h-2v-2h2zM18 29h2v2h-1v1h2v1h-3v-2h-1v1h-1v-2h2zM21 29h1v2h-1zM25 29h2v1h-2zM9 30h2v2h1v1h-1v1h-1v1h1v-1h2v1h-1v1h1v1h-1v1h-1v-2h-2v-4h1v-1h-1zM23 30h1v1h-1zM30 30v3h3v-3zM36 30h2v3h-2zM1 31h7v7h-7zM31 31h1v1h-1zM2 32v5h5v-5zM22 32h1v1h-1zM3 33h3v3h-3zM13 33h5v1h-1v1h1v1h-1v2h-1v-1h-2v-3h-1zM21 33h1v1h-1zM15 34v2h1v-2zM19 34h2v1h-1v1h1v1h-2zM24 34h1v1h-1zM37 34h1v4h-2v-1h1v-1h-1v-1h1zM27 35h2v2h-1v-1h-1zM30 35h1v1h-1zM22 36h1v1h-1zM31 36h1v1h-1zM33 36h1v1h1v1h-3v-1h1zM9 37h1v1h-1zM25 37h2v1h-2z"/></svg>