<svg xmlns="http://www.w3.org/2000/svg" viewBox="0 0 39 39"><path d="M1 1h7v7h-7zM10 1h2v1h-1v1h-1zM13 1h1v1h-1zM15 1h3v1h-1v1h1v1h-2v-1h-2v-1h1zM19 1h2v1h-1v2h-1v-1h-1v-1h1zM22 1h1v1h-1zM24 1h1v1h-1zM27 1h3v4h-2v-2h-2v-1h1zM31 1h7v7h-7zM2 2v5h5v-5zM21 2h1v1h-1zM32 2v5h5v-5zM3 3h3v3h-3zM9 3h1v1h1v1h2v1h-1v2h1v-2h1v3h-3v-3h-1v3h-1zM11 3h3v1h-3zM22 3h1v1h-1zM24 3h1v1h-1zM33 3h3v3h-3zM14 4h1v1h-1zM21 4h1v2h1v1h-1v1h-1zM23 4h1v1h1v1h-2zM25 4h2v1h-2zM15 5h2v2h-1v1h-1zM19 5h1v4h-1v-2h-1v-1h1zM27 5h1v1h-1zM26 6h1v1h-1zM28 6h2v3h-1v1h1v1h-1v1h-1v-1h-2v-1h1v-3h1v1h1v-1h-1zM17 7h1v2h1v1h-2v1h3v1h-3v1h1v1h2v1h-2v2h-1v-1h-2v-2h1v-4h-1v1h-1v-2h3zM23 7h1v2h2v1h-1v1h-3v-1h1v-1h-1v-1h1zM25 7h1v1h-1zM1 9h1v2h-1zM3 9h5v1h-2v2h-1v-2h-2zM10 9h1v1h-1zM21 9h1v1h-1zM31 9h5v2h1v-1h1v2h-3v-2h-2v3h-1v-1h-1zM11 10h1v1h-1zM20 10h1v1h-1zM3 11h1v1h1v3h-1v-2h-3v-1h2zM7 11h1v1h-1zM12 11h1v1h-1zM6 12h1v1h1v1h-1v1h-1zM8 12h4v1h-1v1h-1v-1h-2zM14 12h1v2h-2v-1h1zM20 12h1v1h-1zM22 12h1v1h-1zM34 12h1v1h1v1h-1v1h-1v-1h-1v-1h1zM23 13h1v1h-1zM25 13h2v1h-2zM29 13h1v1h-1zM31 13h1v1h-1zM37 13h1v3h-3v-1h2zM2 14h1v1h1v1h-1v1h2v-2h1v1h1v1h-1v3h1v1h1v1h-1v1h-1v-2h-1v1h-1v-2h-1v4h-2v-1h1v-1h-1v-1h1v-2h2v-1h-3v-2h1zM8 14h1v1h2v3h1v1h1v1h-1v1h-1v-2h-1v-1h-1v-2h-2v-1h1zM11 14h2v1h1v2h-1v-1h-1v-1h-1zM21 14h2v1h-2zM24 14h1v1h-1zM27 14h1v1h1v1h-1v1h1v1h1v1h-1v2h1v1h-2v-3h-1zM30 14h1v2h-1zM32 15h1v1h-1zM20 16h1v1h-1zM22 16h3v1h1v1h-1v1h-1v1h1v-1h1v2h1v1h-2v-1h-3v-3h1v-1h-1zM31 16h1v2h-1zM7 17h1v1h-1zM12 17h1v1h-1zM15 17h1v1h-1zM19 17h1v1h1v1h-1v1h-1zM35 17h2v1h-2zM13 18h1v1h-1zM16 18h2v1h-2zM32 18h1v2h-1zM34 18h1v2h-1zM7 19h1v1h-1zM9 19h1v2h-2v-1h1zM15 19h1v1h-1zM37 19h1v1h-1zM13 20h1v1h-1zM17 20h1v1h-1zM20 20h1v2h-1v1h-1v1h1v1h-2v1h-1v-1h-1v-2h-1v-2h1v1h2v-1h2zM36 20h1v1h-1zM10 21h1v1h2v1h-4v-1h1zM31 21h1v1h-1zM33 21h1v1h-1zM21 22h2v1h1v1h-1v1h-1v-1h-1zM24 22h1v1h-1zM32 22h1v1h-1zM37 22h1v4h-1v-1h-1v-2h1zM5 23h1v2h-1zM7 23h1v1h-1zM13 23h1v1h1v1h-2v1h-1v2h-1v-1h-1v-1h1v-1h1v-1h1zM25 23h2v1h-2zM28 23h2v1h-1v2h-1v-1h-1v-1h1zM31 23h1v1h1v1h-1v1h1v1h-1v1h-1v-2h-1v-1h1zM3 24h1v1h1v1h1v1h-1v3h-1v-1h-1v-1h1v-1h-1zM8 24h1v1h-1zM10 24h1v1h-1zM24 24h1v2h-1v1h-2v-1h1v-1h1zM6 25h2v1h-2zM9 25h1v1h-1zM15 25h1v1h-1zM21 25h1v1h-1zM26 25h1v1h-1zM34 25h2v1h-1v1h1v-1h1v1h1v1h-5v-1h1zM1 26h1v4h-1zM16 26h1v1h1v1h-1v2h1v2h-1v2h2v1h1v1h1v-1h1v1h1v1h-2v1h-1v-1h-1v-1h-1v-1h-2v-1h-2v-1h-1v1h1v1h-1v1h1v2h-3v-2h-2v-4h3v-1h2v1h1v1h1v-5h-3v-1h3zM19 26h2v1h-1v1h1v1h-2zM7 27h1v1h-1zM25 27h2v1h-1v1h1v1h-2v-1h-1v-1h1zM28 27h2v2h2v-1h1v1h2v1h-1v3h2v1h-1v1h-2v1h-1v-1h-1v-1h-1v1h-1v2h-1v-1h-1v-1h1v-3h1v-2h-1zM8 28h1v1h-1zM10 28h1v2h1v1h-3v-2h1zM12 28h1v1h-1zM22 28h1v1h-1zM6 29h2v1h-2zM13 29h2v2h-1v-1h-1zM36 29h1v1h-1zM21 30h3v1h-3zM30 30v3h3v-3zM37 30h1v2h-2v-1h1zM1 31h7v7h-7zM19 31h1v1h-1zM25 31h2v1h-1v1h1v2h-1v1h-1v-1h-1v-1h1v-1h-1v-1h1zM31 31h1v1h-1zM2 32v5h5v-5zM20 32h1v1h-1zM22 32h1v1h-1zM3 33h3v3h-3zM19 33h1v1h-1zM23 33h1v1h-1zM37 33h1v5h-2v-1h1v-1h-1v-1h1zM20 34h1v1h-1zM30 35h1v1h1v1h1v-1h1v1h1v1h-4v-1h-1zM17 36h1v1h-1zM9 37h1v1h-1zM15 37h1v1h-1zM24 37h3v1h-3z"/></svg>